<?xml version="1.0" encoding="utf-8"?>
<!-- Generator: Adobe Illustrator 16.0.0, SVG Export Plug-In . SVG Version: 6.00 Build 0)  -->
<!DOCTYPE svg PUBLIC "-//W3C//DTD SVG 1.1//EN" "http://www.w3.org/Graphics/SVG/1.1/DTD/svg11.dtd">
<svg version="1.1" id="Layer_1" xmlns="http://www.w3.org/2000/svg" xmlns:xlink="http://www.w3.org/1999/xlink" x="0px" y="0px"
	 width="640px" height="480px" viewBox="0 0 640 480" enable-background="new 0 0 640 480" xml:space="preserve">
<circle fill="#146314" stroke="#146314" stroke-miterlimit="10" cx="318.5" cy="239.5" r="204.739"/>
<circle fill="#00FF00" stroke="#00FF00" stroke-miterlimit="10" cx="318.5" cy="239.5" r="186.383"/>
<circle fill="#FFFFFF" cx="318.5" cy="239.5" r="168.026"/>
<circle fill="#FF0000" stroke="#FFFFFF" stroke-miterlimit="10" cx="318.359" cy="236.471" r="153.097"/>
<path fill="#0000FF" d="M342.441,346.713c-0.16,20.102-12.056,26.777-26.655,26.695c-14.604-0.091-26.388-6.909-26.229-27.015
	c0.103-13.141,15.177-29.011,23.056-35.358c0,0,6.216-0.916,7.009-0.394C328.165,316.328,342.54,333.741,342.441,346.713z"/>
<path fill="#FFFF00" d="M423.101,284.269c15.611,12.667,13.407,26.127,4.234,37.486c-9.183,11.355-21.864,16.312-37.476,3.647
	c-10.206-8.279-13.205-29.962-13.253-40.079c0,0,3.163-5.43,4.07-5.721C390.451,276.472,413.023,276.1,423.101,284.269z"/>
<path fill="#00FF00" d="M424.621,182.273c19.639-4.297,28.786,5.822,31.94,20.077c3.146,14.263-0.895,27.265-20.533,31.564
	c-12.837,2.813-31.65-8.372-39.589-14.648c0,0-2.268-5.859-1.931-6.75C398.16,202.925,411.952,185.051,424.621,182.273z"/>
<path fill="#800000" d="M345.859,117.452c8.892-18.029,22.508-18.863,35.621-12.436c13.105,6.443,20.75,17.708,11.857,35.739
	c-5.813,11.788-26.289,19.514-36.149,21.804c0,0-5.993-1.884-6.481-2.701C345.491,151.02,340.125,129.088,345.859,117.452z"/>
<path fill="#4B0082" d="M246.063,138.566c-8.543-18.198-0.7-29.359,12.503-35.596c13.211-6.224,26.785-5.167,35.328,13.03
	c5.586,11.896-1.151,32.718-5.513,41.853c0,0-5.21,3.511-6.153,3.379C272.067,159.797,251.58,150.309,246.063,138.566z"/>
<path fill="#B4C3D1" d="M200.303,229.732c-19.551-4.677-23.38-17.768-20.018-31.979c3.376-14.207,12.671-24.158,32.223-19.481
	c12.783,3.057,24.852,21.313,29.271,30.422c0,0-0.508,6.261-1.198,6.916C233.119,222.654,212.921,232.746,200.303,229.732z"/>
<path fill="#9400D3" d="M243.003,322.373c-15.854,12.362-28.474,7.186-37.482-4.308c-8.998-11.503-10.974-24.976,4.879-37.336
	c10.364-8.084,32.161-6.127,42.035-3.897c0,0,4.577,4.304,4.658,5.253C257.944,292.313,253.23,314.393,243.003,322.373z"/>
</svg>
